<?xml version="1.0" standalone="no"?><!DOCTYPE svg PUBLIC "-//W3C//DTD SVG 1.1//EN" "http://www.w3.org/Graphics/SVG/1.1/DTD/svg11.dtd"><svg t="1781143782679" class="icon" viewBox="0 0 1298 1024" version="1.1" xmlns="http://www.w3.org/2000/svg" p-id="9762" xmlns:xlink="http://www.w3.org/1999/xlink" width="253.515625" height="200"><path d="M273.40483 0c-19.655728 0-39.184644 19.655728-39.184644 39.184644v945.630712c0 19.655728 19.655728 39.184644 39.184644 39.184644h806.011641c19.655728 0 39.184644-19.655728 39.184644-39.184644V222.933994L893.257709 0H273.40483z m0 0" fill="#68C378" p-id="9763"></path><path d="M893.257709 0v183.74935c0 19.655728 19.655728 39.184644 39.184644 39.184644h183.74935L893.257709 0z m0 0" fill="#A4DBAE" p-id="9764"></path><path d="M721.80904 546.302415L836.826749 394.382663c9.764458-14.710093 9.764458-39.184644-4.945634-51.485326-14.710093-9.764458-39.184644-9.764458-51.485326 4.945635l-105.380061 137.20966-105.380062-137.20966c-14.710093-14.710093-39.184644-14.710093-51.485325-4.945635C503.440248 357.60743 503.440248 382.081981 513.204706 394.382663l115.14452 151.919752-115.14452 151.919752c-9.764458 14.710093-9.764458 39.184644 4.945635 51.485325 19.655728 14.710093 41.594056 14.710093 51.485325-4.945634l105.380062-137.20966 105.380061 137.20966c9.764458 19.655728 34.239009 19.655728 51.485326 4.945634 14.710093-14.710093 14.710093-39.184644 4.945634-51.485325l-115.017709-151.919752z m0 0" fill="#FFFFFF" p-id="9765"></path></svg>